<svg width="512" height="512" viewBox="0 0 512 512" fill="none" xmlns="http://www.w3.org/2000/svg">
<g clip-path="url(#clip0_1_5)">
<path fill-rule="evenodd" clip-rule="evenodd" d="M215.49 0.0799866C242.84 0.0799866 270.18 0.0799866 297.53 0.0799866C301.03 1.57999 305.51 0.759987 309.25 1.01999C316.58 1.52999 323.93 2.30999 331.23 3.04999C352.43 5.21999 373.41 10.22 393.72 16.09C424.74 25.05 455.32 46.23 474.73 72.51C488.89 91.68 500.18 121.6 504.9 144.75C507.37 156.88 509.55 169.81 510.03 182.25C510.23 187.4 510.5 203.72 511.92 207.56C511.92 239.56 511.92 271.56 511.92 303.57C510.47 307.57 511.23 312.55 510.97 316.75C510.48 324.6 509.59 332.42 508.99 340.25C507.58 358.51 502.84 377.04 496.82 394.13C491.91 408.05 486.35 422.27 477.79 434.55C448.39 476.74 404.95 495.69 356.24 504.88C343.75 507.24 330.51 509.47 317.75 510.04C312.1 510.29 295.39 510.38 291.07 511.92C267.71 511.92 244.34 511.92 220.98 511.92C215.94 510.1 209.55 511.3 204.23 510.77C192.35 509.59 180.56 508.2 168.73 506.98C162.31 506.32 155.98 504.4 149.71 503.16C117.29 496.72 86.05 485.36 60.82 462.95C53.02 456.02 45.67 448.74 39.27 440.48C28.25 426.24 21.41 409.69 15.79 392.9C12.96 384.44 10.14 375.92 8.14002 367.19C1.68002 339.03 1.38002 308.16 0.810022 279.25C0.210021 248.61 0.0700214 217.73 2.78002 187.18C3.89002 174.67 4.76002 162.11 7.14002 149.79C13.27 118.12 27.11 82.01 50.35 58.59C85.21 23.46 120.06 14.4 166.77 5.17999C178.11 2.93999 189.78 2.71999 201.23 1.23999C205.77 0.659987 211.24 1.85999 215.49 0.0799866ZM280.75 272.07C283.54 272.19 286.28 273.89 288.94 274.76C293.23 276.17 297.87 277.16 302.34 277.8C318.17 280.04 334.66 278.07 349.63 272.83C390.8 258.42 416.13 214.66 407.82 171.84C404.83 156.45 397 142.27 386.68 130.57C347.41 86.02 269.4 91.3 238.35 142.6C226.22 162.63 222.6 186.57 226.16 209.72C226.56 212.28 227.61 214.71 227.99 217.25C225.12 222.33 220.06 227.02 216.16 231.39C210.02 238.26 204.29 245.5 198.16 252.38C175.93 277.3 154.12 302.83 132.71 328.45C125.9 336.6 118.93 344.71 111.85 352.62C109.17 355.62 104.43 359.5 102.9 363.22C101.98 365.47 103.26 372.57 103.58 375.25C104.13 379.77 103.04 386.5 105.11 390.64C106.7 393.83 117.39 401.55 120.63 404.14C123.07 406.09 131.38 412.9 134.42 411.67C137.17 410.55 139.97 406.41 142.07 404.33C145.06 401.38 151.88 395.85 153.4 392.16C154.07 390.53 153.93 388.72 154.26 387.02C155.82 379.06 156.23 367.46 159.1 360.25C170.65 359.27 182.2 358.3 193.75 357.32C194.92 345.76 196.08 334.21 197.25 322.65C209.42 322.3 221.58 321.94 233.75 321.59C234.19 309.14 234.62 296.7 235.06 284.25C247.8 284.75 260.53 285.25 273.27 285.75C277.22 282.55 277.52 275.89 280.75 272.07ZM332.89 143.23C336.7 142.57 340.66 142.92 344.37 143.8C374.73 151 373.18 195.02 342.61 200.78C338.7 201.52 334.35 201.23 330.54 200.24C300.06 192.32 301.77 148.56 332.89 143.23Z" fill="#FE600C" stroke="#FE600C" stroke-width="0.25" stroke-linejoin="round"/>
<path fill-rule="evenodd" clip-rule="evenodd" d="M280.75 272.07C277.52 275.89 277.22 282.55 273.27 285.75C260.53 285.25 247.8 284.75 235.06 284.25C234.62 296.7 234.19 309.14 233.75 321.59C221.58 321.94 209.42 322.3 197.25 322.65C196.08 334.21 194.92 345.76 193.75 357.32C182.2 358.3 170.65 359.27 159.1 360.25C156.23 367.46 155.82 379.06 154.26 387.02C153.93 388.72 154.07 390.53 153.4 392.16C151.88 395.85 145.06 401.38 142.07 404.33C139.97 406.41 137.17 410.55 134.42 411.67C131.38 412.9 123.07 406.09 120.63 404.14C117.39 401.55 106.7 393.83 105.11 390.64C103.04 386.5 104.13 379.77 103.58 375.25C103.26 372.57 101.98 365.47 102.9 363.22C104.43 359.5 109.17 355.62 111.85 352.62C118.93 344.71 125.9 336.6 132.71 328.45C154.12 302.83 175.93 277.3 198.16 252.38C204.29 245.5 210.02 238.26 216.16 231.39C220.06 227.02 225.12 222.33 227.99 217.25C227.61 214.71 226.56 212.28 226.16 209.72C222.6 186.57 226.22 162.63 238.35 142.6C269.4 91.3 347.41 86.02 386.68 130.57C397 142.27 404.83 156.45 407.82 171.84C416.13 214.66 390.8 258.42 349.63 272.83C334.66 278.07 318.17 280.04 302.34 277.8C297.87 277.16 293.23 276.17 288.94 274.76C286.28 273.89 283.54 272.19 280.75 272.07ZM332.89 143.23C301.77 148.56 300.06 192.32 330.54 200.24C334.35 201.23 338.7 201.52 342.61 200.78C373.18 195.02 374.73 151 344.37 143.8C340.66 142.92 336.7 142.57 332.89 143.23Z" fill="#FEFEFF" stroke="#FEFEFF" stroke-width="0.25" stroke-linejoin="round"/>
</g>
<defs>
<clipPath id="clip0_1_5">
<rect width="512" height="512" fill="white"/>
</clipPath>
</defs>
</svg>
